%TF.GenerationSoftware,KiCad,Pcbnew,(5.1.9)-1*%
%TF.CreationDate,2021-08-30T11:16:40+09:00*%
%TF.ProjectId,007_SPLP,3030375f-5350-44c5-902e-6b696361645f,rev?*%
%TF.SameCoordinates,Original*%
%TF.FileFunction,Soldermask,Bot*%
%TF.FilePolarity,Negative*%
%FSLAX46Y46*%
G04 Gerber Fmt 4.6, Leading zero omitted, Abs format (unit mm)*
G04 Created by KiCad (PCBNEW (5.1.9)-1) date 2021-08-30 11:16:40*
%MOMM*%
%LPD*%
G01*
G04 APERTURE LIST*
%ADD10C,3.400000*%
%ADD11C,1.900000*%
%ADD12O,2.200000X1.600000*%
%ADD13R,1.700000X1.700000*%
%ADD14O,1.700000X1.700000*%
%ADD15C,1.524000*%
G04 APERTURE END LIST*
D10*
%TO.C,SW30*%
X144408127Y-161360185D03*
D11*
X138991684Y-160405120D03*
X149824570Y-162315250D03*
G36*
G01*
X148908741Y-158295143D02*
X148908741Y-158295143D01*
G75*
G02*
X149835506Y-157646216I787846J-138919D01*
G01*
X150426390Y-157750404D01*
G75*
G02*
X151075317Y-158677169I-138919J-787846D01*
G01*
X151075317Y-158677169D01*
G75*
G02*
X150148552Y-159326096I-787846J138919D01*
G01*
X149557668Y-159221908D01*
G75*
G02*
X148908741Y-158295143I138919J787846D01*
G01*
G37*
G36*
G01*
X139060663Y-156558662D02*
X139060663Y-156558662D01*
G75*
G02*
X139987428Y-155909735I787846J-138919D01*
G01*
X140578312Y-156013923D01*
G75*
G02*
X141227239Y-156940688I-138919J-787846D01*
G01*
X141227239Y-156940688D01*
G75*
G02*
X140300474Y-157589615I-787846J138919D01*
G01*
X139709590Y-157485427D01*
G75*
G02*
X139060663Y-156558662I138919J787846D01*
G01*
G37*
G36*
G01*
X144349363Y-155358806D02*
X144349363Y-155358806D01*
G75*
G02*
X145276128Y-154709879I787846J-138919D01*
G01*
X145867012Y-154814067D01*
G75*
G02*
X146515939Y-155740832I-138919J-787846D01*
G01*
X146515939Y-155740832D01*
G75*
G02*
X145589174Y-156389759I-787846J138919D01*
G01*
X144998290Y-156285571D01*
G75*
G02*
X144349363Y-155358806I138919J787846D01*
G01*
G37*
%TD*%
D10*
%TO.C,SW22*%
X115499002Y-141031328D03*
D11*
X110082559Y-140076263D03*
X120915445Y-141986393D03*
G36*
G01*
X119999616Y-137966286D02*
X119999616Y-137966286D01*
G75*
G02*
X120926381Y-137317359I787846J-138919D01*
G01*
X121517265Y-137421547D01*
G75*
G02*
X122166192Y-138348312I-138919J-787846D01*
G01*
X122166192Y-138348312D01*
G75*
G02*
X121239427Y-138997239I-787846J138919D01*
G01*
X120648543Y-138893051D01*
G75*
G02*
X119999616Y-137966286I138919J787846D01*
G01*
G37*
G36*
G01*
X110151538Y-136229805D02*
X110151538Y-136229805D01*
G75*
G02*
X111078303Y-135580878I787846J-138919D01*
G01*
X111669187Y-135685066D01*
G75*
G02*
X112318114Y-136611831I-138919J-787846D01*
G01*
X112318114Y-136611831D01*
G75*
G02*
X111391349Y-137260758I-787846J138919D01*
G01*
X110800465Y-137156570D01*
G75*
G02*
X110151538Y-136229805I138919J787846D01*
G01*
G37*
G36*
G01*
X115440238Y-135029949D02*
X115440238Y-135029949D01*
G75*
G02*
X116367003Y-134381022I787846J-138919D01*
G01*
X116957887Y-134485210D01*
G75*
G02*
X117606814Y-135411975I-138919J-787846D01*
G01*
X117606814Y-135411975D01*
G75*
G02*
X116680049Y-136060902I-787846J138919D01*
G01*
X116089165Y-135956714D01*
G75*
G02*
X115440238Y-135029949I138919J787846D01*
G01*
G37*
%TD*%
D12*
%TO.C,SW17*%
X112000000Y-114100000D03*
X107000000Y-116200000D03*
X117000000Y-116200000D03*
D11*
X117500000Y-120000000D03*
X106500000Y-120000000D03*
D10*
X112000000Y-120000000D03*
%TD*%
%TO.C,SW24*%
X147012850Y-146588068D03*
D11*
X141596407Y-145633003D03*
X152429293Y-147543133D03*
G36*
G01*
X151513464Y-143523026D02*
X151513464Y-143523026D01*
G75*
G02*
X152440229Y-142874099I787846J-138919D01*
G01*
X153031113Y-142978287D01*
G75*
G02*
X153680040Y-143905052I-138919J-787846D01*
G01*
X153680040Y-143905052D01*
G75*
G02*
X152753275Y-144553979I-787846J138919D01*
G01*
X152162391Y-144449791D01*
G75*
G02*
X151513464Y-143523026I138919J787846D01*
G01*
G37*
G36*
G01*
X141665386Y-141786545D02*
X141665386Y-141786545D01*
G75*
G02*
X142592151Y-141137618I787846J-138919D01*
G01*
X143183035Y-141241806D01*
G75*
G02*
X143831962Y-142168571I-138919J-787846D01*
G01*
X143831962Y-142168571D01*
G75*
G02*
X142905197Y-142817498I-787846J138919D01*
G01*
X142314313Y-142713310D01*
G75*
G02*
X141665386Y-141786545I138919J787846D01*
G01*
G37*
G36*
G01*
X146954086Y-140586689D02*
X146954086Y-140586689D01*
G75*
G02*
X147880851Y-139937762I787846J-138919D01*
G01*
X148471735Y-140041950D01*
G75*
G02*
X149120662Y-140968715I-138919J-787846D01*
G01*
X149120662Y-140968715D01*
G75*
G02*
X148193897Y-141617642I-787846J138919D01*
G01*
X147603013Y-141513454D01*
G75*
G02*
X146954086Y-140586689I138919J787846D01*
G01*
G37*
%TD*%
D13*
%TO.C,J1*%
X138400000Y-89000000D03*
D14*
X140940000Y-89000000D03*
X138400000Y-91540000D03*
X140940000Y-91540000D03*
X138400000Y-94080000D03*
X140940000Y-94080000D03*
X138400000Y-96620000D03*
X140940000Y-96620000D03*
X138400000Y-99160000D03*
X140940000Y-99160000D03*
X138400000Y-101700000D03*
X140940000Y-101700000D03*
X138400000Y-104240000D03*
X140940000Y-104240000D03*
%TD*%
D13*
%TO.C,J2*%
X143480000Y-89000000D03*
D14*
X143480000Y-91540000D03*
X143480000Y-94080000D03*
X143480000Y-96620000D03*
X143480000Y-99160000D03*
X143480000Y-101700000D03*
X143480000Y-104240000D03*
%TD*%
D12*
%TO.C,SW1*%
X46000000Y-90900000D03*
X41000000Y-93000000D03*
X51000000Y-93000000D03*
D11*
X51500000Y-96800000D03*
X40500000Y-96800000D03*
D10*
X46000000Y-96800000D03*
%TD*%
%TO.C,SW2*%
X61000000Y-94800000D03*
D11*
X55500000Y-94800000D03*
X66500000Y-94800000D03*
D12*
X66000000Y-91000000D03*
X56000000Y-91000000D03*
X61000000Y-88900000D03*
%TD*%
%TO.C,SW3*%
X78000000Y-83900000D03*
X73000000Y-86000000D03*
X83000000Y-86000000D03*
D11*
X83500000Y-89800000D03*
X72500000Y-89800000D03*
D10*
X78000000Y-89800000D03*
%TD*%
D12*
%TO.C,SW4*%
X95000000Y-81900000D03*
X90000000Y-84000000D03*
X100000000Y-84000000D03*
D11*
X100500000Y-87800000D03*
X89500000Y-87800000D03*
D10*
X95000000Y-87800000D03*
%TD*%
%TO.C,SW5*%
X112000000Y-89800000D03*
D11*
X106500000Y-89800000D03*
X117500000Y-89800000D03*
D12*
X117000000Y-86000000D03*
X107000000Y-86000000D03*
X112000000Y-83900000D03*
%TD*%
D10*
%TO.C,SW6*%
X127000000Y-91800000D03*
D11*
X121500000Y-91800000D03*
X132500000Y-91800000D03*
D12*
X132000000Y-88000000D03*
X122000000Y-88000000D03*
X127000000Y-85900000D03*
%TD*%
%TO.C,SW7*%
X46000000Y-106000000D03*
X41000000Y-108100000D03*
X51000000Y-108100000D03*
D11*
X51500000Y-111900000D03*
X40500000Y-111900000D03*
D10*
X46000000Y-111900000D03*
%TD*%
D12*
%TO.C,SW8*%
X61000000Y-104000000D03*
X56000000Y-106100000D03*
X66000000Y-106100000D03*
D11*
X66500000Y-109900000D03*
X55500000Y-109900000D03*
D10*
X61000000Y-109900000D03*
%TD*%
%TO.C,SW9*%
X78000000Y-104900000D03*
D11*
X72500000Y-104900000D03*
X83500000Y-104900000D03*
D12*
X83000000Y-101100000D03*
X73000000Y-101100000D03*
X78000000Y-99000000D03*
%TD*%
%TO.C,SW10*%
X95000000Y-97000000D03*
X90000000Y-99100000D03*
X100000000Y-99100000D03*
D11*
X100500000Y-102900000D03*
X89500000Y-102900000D03*
D10*
X95000000Y-102900000D03*
%TD*%
%TO.C,SW11*%
X112000000Y-104900000D03*
D11*
X106500000Y-104900000D03*
X117500000Y-104900000D03*
D12*
X117000000Y-101100000D03*
X107000000Y-101100000D03*
X112000000Y-99000000D03*
%TD*%
%TO.C,SW12*%
X127000000Y-101000000D03*
X122000000Y-103100000D03*
X132000000Y-103100000D03*
D11*
X132500000Y-106900000D03*
X121500000Y-106900000D03*
D10*
X127000000Y-106900000D03*
%TD*%
D12*
%TO.C,SW13*%
X46000000Y-121100000D03*
X41000000Y-123200000D03*
X51000000Y-123200000D03*
D11*
X51500000Y-127000000D03*
X40500000Y-127000000D03*
D10*
X46000000Y-127000000D03*
%TD*%
%TO.C,SW14*%
X61000000Y-125000000D03*
D11*
X55500000Y-125000000D03*
X66500000Y-125000000D03*
D12*
X66000000Y-121200000D03*
X56000000Y-121200000D03*
X61000000Y-119100000D03*
%TD*%
%TO.C,SW15*%
X78000000Y-114100000D03*
X73000000Y-116200000D03*
X83000000Y-116200000D03*
D11*
X83500000Y-120000000D03*
X72500000Y-120000000D03*
D10*
X78000000Y-120000000D03*
%TD*%
%TO.C,SW16*%
X95000000Y-118000000D03*
D11*
X89500000Y-118000000D03*
X100500000Y-118000000D03*
D12*
X100000000Y-114200000D03*
X90000000Y-114200000D03*
X95000000Y-112100000D03*
%TD*%
%TO.C,SW18*%
X127000000Y-116100000D03*
X122000000Y-118200000D03*
X132000000Y-118200000D03*
D11*
X132500000Y-122000000D03*
X121500000Y-122000000D03*
D10*
X127000000Y-122000000D03*
%TD*%
%TO.C,SW21*%
G36*
G01*
X99683314Y-132251577D02*
X99683314Y-132251577D01*
G75*
G02*
X100610079Y-131602650I787846J-138919D01*
G01*
X101200963Y-131706838D01*
G75*
G02*
X101849890Y-132633603I-138919J-787846D01*
G01*
X101849890Y-132633603D01*
G75*
G02*
X100923125Y-133282530I-787846J138919D01*
G01*
X100332241Y-133178342D01*
G75*
G02*
X99683314Y-132251577I138919J787846D01*
G01*
G37*
G36*
G01*
X94394614Y-133451433D02*
X94394614Y-133451433D01*
G75*
G02*
X95321379Y-132802506I787846J-138919D01*
G01*
X95912263Y-132906694D01*
G75*
G02*
X96561190Y-133833459I-138919J-787846D01*
G01*
X96561190Y-133833459D01*
G75*
G02*
X95634425Y-134482386I-787846J138919D01*
G01*
X95043541Y-134378198D01*
G75*
G02*
X94394614Y-133451433I138919J787846D01*
G01*
G37*
G36*
G01*
X104242692Y-135187914D02*
X104242692Y-135187914D01*
G75*
G02*
X105169457Y-134538987I787846J-138919D01*
G01*
X105760341Y-134643175D01*
G75*
G02*
X106409268Y-135569940I-138919J-787846D01*
G01*
X106409268Y-135569940D01*
G75*
G02*
X105482503Y-136218867I-787846J138919D01*
G01*
X104891619Y-136114679D01*
G75*
G02*
X104242692Y-135187914I138919J787846D01*
G01*
G37*
D11*
X105158521Y-139208021D03*
X94325635Y-137297891D03*
D10*
X99742078Y-138252956D03*
%TD*%
%TO.C,SW23*%
G36*
G01*
X131197162Y-137808319D02*
X131197162Y-137808319D01*
G75*
G02*
X132123927Y-137159392I787846J-138919D01*
G01*
X132714811Y-137263580D01*
G75*
G02*
X133363738Y-138190345I-138919J-787846D01*
G01*
X133363738Y-138190345D01*
G75*
G02*
X132436973Y-138839272I-787846J138919D01*
G01*
X131846089Y-138735084D01*
G75*
G02*
X131197162Y-137808319I138919J787846D01*
G01*
G37*
G36*
G01*
X125908462Y-139008175D02*
X125908462Y-139008175D01*
G75*
G02*
X126835227Y-138359248I787846J-138919D01*
G01*
X127426111Y-138463436D01*
G75*
G02*
X128075038Y-139390201I-138919J-787846D01*
G01*
X128075038Y-139390201D01*
G75*
G02*
X127148273Y-140039128I-787846J138919D01*
G01*
X126557389Y-139934940D01*
G75*
G02*
X125908462Y-139008175I138919J787846D01*
G01*
G37*
G36*
G01*
X135756540Y-140744656D02*
X135756540Y-140744656D01*
G75*
G02*
X136683305Y-140095729I787846J-138919D01*
G01*
X137274189Y-140199917D01*
G75*
G02*
X137923116Y-141126682I-138919J-787846D01*
G01*
X137923116Y-141126682D01*
G75*
G02*
X136996351Y-141775609I-787846J138919D01*
G01*
X136405467Y-141671421D01*
G75*
G02*
X135756540Y-140744656I138919J787846D01*
G01*
G37*
D11*
X136672369Y-144764763D03*
X125839483Y-142854633D03*
D10*
X131255926Y-143809698D03*
%TD*%
%TO.C,SW27*%
G36*
G01*
X97078591Y-147023693D02*
X97078591Y-147023693D01*
G75*
G02*
X98005356Y-146374766I787846J-138919D01*
G01*
X98596240Y-146478954D01*
G75*
G02*
X99245167Y-147405719I-138919J-787846D01*
G01*
X99245167Y-147405719D01*
G75*
G02*
X98318402Y-148054646I-787846J138919D01*
G01*
X97727518Y-147950458D01*
G75*
G02*
X97078591Y-147023693I138919J787846D01*
G01*
G37*
G36*
G01*
X91789891Y-148223549D02*
X91789891Y-148223549D01*
G75*
G02*
X92716656Y-147574622I787846J-138919D01*
G01*
X93307540Y-147678810D01*
G75*
G02*
X93956467Y-148605575I-138919J-787846D01*
G01*
X93956467Y-148605575D01*
G75*
G02*
X93029702Y-149254502I-787846J138919D01*
G01*
X92438818Y-149150314D01*
G75*
G02*
X91789891Y-148223549I138919J787846D01*
G01*
G37*
G36*
G01*
X101637969Y-149960030D02*
X101637969Y-149960030D01*
G75*
G02*
X102564734Y-149311103I787846J-138919D01*
G01*
X103155618Y-149415291D01*
G75*
G02*
X103804545Y-150342056I-138919J-787846D01*
G01*
X103804545Y-150342056D01*
G75*
G02*
X102877780Y-150990983I-787846J138919D01*
G01*
X102286896Y-150886795D01*
G75*
G02*
X101637969Y-149960030I138919J787846D01*
G01*
G37*
D11*
X102553798Y-153980137D03*
X91720912Y-152070007D03*
D10*
X97137355Y-153025072D03*
%TD*%
%TO.C,SW28*%
X112894280Y-155803443D03*
D11*
X107477837Y-154848378D03*
X118310723Y-156758508D03*
G36*
G01*
X117394894Y-152738401D02*
X117394894Y-152738401D01*
G75*
G02*
X118321659Y-152089474I787846J-138919D01*
G01*
X118912543Y-152193662D01*
G75*
G02*
X119561470Y-153120427I-138919J-787846D01*
G01*
X119561470Y-153120427D01*
G75*
G02*
X118634705Y-153769354I-787846J138919D01*
G01*
X118043821Y-153665166D01*
G75*
G02*
X117394894Y-152738401I138919J787846D01*
G01*
G37*
G36*
G01*
X107546816Y-151001920D02*
X107546816Y-151001920D01*
G75*
G02*
X108473581Y-150352993I787846J-138919D01*
G01*
X109064465Y-150457181D01*
G75*
G02*
X109713392Y-151383946I-138919J-787846D01*
G01*
X109713392Y-151383946D01*
G75*
G02*
X108786627Y-152032873I-787846J138919D01*
G01*
X108195743Y-151928685D01*
G75*
G02*
X107546816Y-151001920I138919J787846D01*
G01*
G37*
G36*
G01*
X112835516Y-149802064D02*
X112835516Y-149802064D01*
G75*
G02*
X113762281Y-149153137I787846J-138919D01*
G01*
X114353165Y-149257325D01*
G75*
G02*
X115002092Y-150184090I-138919J-787846D01*
G01*
X115002092Y-150184090D01*
G75*
G02*
X114075327Y-150833017I-787846J138919D01*
G01*
X113484443Y-150728829D01*
G75*
G02*
X112835516Y-149802064I138919J787846D01*
G01*
G37*
%TD*%
%TO.C,SW29*%
G36*
G01*
X128592439Y-152580435D02*
X128592439Y-152580435D01*
G75*
G02*
X129519204Y-151931508I787846J-138919D01*
G01*
X130110088Y-152035696D01*
G75*
G02*
X130759015Y-152962461I-138919J-787846D01*
G01*
X130759015Y-152962461D01*
G75*
G02*
X129832250Y-153611388I-787846J138919D01*
G01*
X129241366Y-153507200D01*
G75*
G02*
X128592439Y-152580435I138919J787846D01*
G01*
G37*
G36*
G01*
X123303739Y-153780291D02*
X123303739Y-153780291D01*
G75*
G02*
X124230504Y-153131364I787846J-138919D01*
G01*
X124821388Y-153235552D01*
G75*
G02*
X125470315Y-154162317I-138919J-787846D01*
G01*
X125470315Y-154162317D01*
G75*
G02*
X124543550Y-154811244I-787846J138919D01*
G01*
X123952666Y-154707056D01*
G75*
G02*
X123303739Y-153780291I138919J787846D01*
G01*
G37*
G36*
G01*
X133151817Y-155516772D02*
X133151817Y-155516772D01*
G75*
G02*
X134078582Y-154867845I787846J-138919D01*
G01*
X134669466Y-154972033D01*
G75*
G02*
X135318393Y-155898798I-138919J-787846D01*
G01*
X135318393Y-155898798D01*
G75*
G02*
X134391628Y-156547725I-787846J138919D01*
G01*
X133800744Y-156443537D01*
G75*
G02*
X133151817Y-155516772I138919J787846D01*
G01*
G37*
X134067646Y-159536879D03*
X123234760Y-157626749D03*
D10*
X128651203Y-158581814D03*
%TD*%
D15*
%TO.C,U1*%
X59522000Y-134388600D03*
X62062000Y-134388600D03*
X64602000Y-134388600D03*
X67142000Y-134388600D03*
X69682000Y-134388600D03*
X72222000Y-134388600D03*
X74762000Y-134388600D03*
X77302000Y-134388600D03*
X79842000Y-134388600D03*
X82382000Y-134388600D03*
X84922000Y-134388600D03*
X87462000Y-134388600D03*
X87462000Y-149608600D03*
X84922000Y-149608600D03*
X82382000Y-149608600D03*
X79842000Y-149608600D03*
X77302000Y-149608600D03*
X74762000Y-149608600D03*
X72222000Y-149608600D03*
X69682000Y-149608600D03*
X67142000Y-149608600D03*
X64602000Y-149608600D03*
X62062000Y-149608600D03*
X59522000Y-149608600D03*
%TD*%
M02*
