M48
; DRILL file {KiCad (5.1.9)-1} date 08/30/21 11:16:54
; FORMAT={-:-/ absolute / metric / decimal}
; #@! TF.CreationDate,2021-08-30T11:16:54+09:00
; #@! TF.GenerationSoftware,Kicad,Pcbnew,(5.1.9)-1
; #@! TF.FileFunction,NonPlated,1,2,NPTH
FMAT,2
METRIC
T1C1.900
T2C3.400
%
G90
G05
T1
X40.5Y-96.8
X40.5Y-111.9
X40.5Y-127.0
X51.5Y-96.8
X51.5Y-111.9
X51.5Y-127.0
X55.5Y-94.8
X55.5Y-109.9
X55.5Y-125.0
X66.5Y-94.8
X66.5Y-109.9
X66.5Y-125.0
X72.5Y-89.8
X72.5Y-104.9
X72.5Y-120.0
X83.5Y-89.8
X83.5Y-104.9
X83.5Y-120.0
X89.5Y-87.8
X89.5Y-102.9
X89.5Y-118.0
X91.721Y-152.07
X94.326Y-137.298
X100.5Y-87.8
X100.5Y-102.9
X100.5Y-118.0
X102.554Y-153.98
X105.159Y-139.208
X106.5Y-89.8
X106.5Y-104.9
X106.5Y-120.0
X107.478Y-154.848
X110.083Y-140.076
X117.5Y-89.8
X117.5Y-104.9
X117.5Y-120.0
X118.311Y-156.759
X120.915Y-141.986
X121.5Y-91.8
X121.5Y-106.9
X121.5Y-122.0
X123.235Y-157.627
X125.839Y-142.855
X132.5Y-91.8
X132.5Y-106.9
X132.5Y-122.0
X134.068Y-159.537
X136.672Y-144.765
X138.992Y-160.405
X141.596Y-145.633
X149.825Y-162.315
X152.429Y-147.543
T2
X46.0Y-96.8
X46.0Y-111.9
X46.0Y-127.0
X61.0Y-94.8
X61.0Y-109.9
X61.0Y-125.0
X78.0Y-89.8
X78.0Y-104.9
X78.0Y-120.0
X95.0Y-87.8
X95.0Y-102.9
X95.0Y-118.0
X97.137Y-153.025
X99.742Y-138.253
X112.0Y-89.8
X112.0Y-104.9
X112.0Y-120.0
X112.894Y-155.803
X115.499Y-141.031
X127.0Y-91.8
X127.0Y-106.9
X127.0Y-122.0
X128.651Y-158.582
X131.256Y-143.81
X144.408Y-161.36
X147.013Y-146.588
T0
M30
