M48
; DRILL file {KiCad (5.1.9)-1} date 08/30/21 11:16:54
; FORMAT={-:-/ absolute / metric / decimal}
; #@! TF.CreationDate,2021-08-30T11:16:54+09:00
; #@! TF.GenerationSoftware,Kicad,Pcbnew,(5.1.9)-1
; #@! TF.FileFunction,Plated,1,2,PTH
FMAT,2
METRIC
T1C0.400
T2C0.600
T3C0.813
T4C1.000
%
G90
G05
T1
X40.64Y-101.854
X40.894Y-131.826
X41.402Y-119.634
X42.672Y-90.678
X43.18Y-128.016
X50.8Y-104.648
X54.864Y-99.314
X58.928Y-145.034
X67.056Y-102.616
X71.882Y-94.488
X73.152Y-140.97
X82.55Y-136.906
X83.82Y-98.044
X89.662Y-92.202
X91.44Y-141.224
X91.694Y-127.254
X92.964Y-157.48
X94.488Y-140.716
X97.536Y-82.042
X99.568Y-81.28
X101.092Y-95.758
X106.172Y-94.488
X109.099Y-159.633
X111.252Y-145.034
X116.84Y-127.762
X120.65Y-99.568
X120.904Y-84.836
X121.412Y-151.892
X122.428Y-126.492
X124.714Y-162.052
X127.254Y-148.59
X129.794Y-89.662
X130.302Y-105.664
X132.334Y-131.572
X132.842Y-115.062
X136.144Y-148.844
X138.43Y-110.49
X138.938Y-135.636
X140.462Y-164.846
X141.732Y-163.83
X142.748Y-151.384
X143.51Y-122.428
T3
X59.522Y-134.389
X59.522Y-149.609
X62.062Y-134.389
X62.062Y-149.609
X64.602Y-134.389
X64.602Y-149.609
X67.142Y-134.389
X67.142Y-149.609
X69.682Y-134.389
X69.682Y-149.609
X72.222Y-134.389
X72.222Y-149.609
X74.762Y-134.389
X74.762Y-149.609
X77.302Y-134.389
X77.302Y-149.609
X79.842Y-134.389
X79.842Y-149.609
X82.382Y-134.389
X82.382Y-149.609
X84.922Y-134.389
X84.922Y-149.609
X87.462Y-134.389
X87.462Y-149.609
T4
X138.4Y-89.0
X138.4Y-91.54
X138.4Y-94.08
X138.4Y-96.62
X138.4Y-99.16
X138.4Y-101.7
X138.4Y-104.24
X140.94Y-89.0
X140.94Y-91.54
X140.94Y-94.08
X140.94Y-96.62
X140.94Y-99.16
X140.94Y-101.7
X140.94Y-104.24
X143.48Y-89.0
X143.48Y-91.54
X143.48Y-94.08
X143.48Y-96.62
X143.48Y-99.16
X143.48Y-101.7
X143.48Y-104.24
T2
G00X40.7Y-93.0
M15
G01X41.3Y-93.0
M16
G05
G00X40.7Y-108.1
M15
G01X41.3Y-108.1
M16
G05
G00X40.7Y-123.2
M15
G01X41.3Y-123.2
M16
G05
G00X45.7Y-90.9
M15
G01X46.3Y-90.9
M16
G05
G00X45.7Y-106.0
M15
G01X46.3Y-106.0
M16
G05
G00X45.7Y-121.1
M15
G01X46.3Y-121.1
M16
G05
G00X50.7Y-93.0
M15
G01X51.3Y-93.0
M16
G05
G00X50.7Y-108.1
M15
G01X51.3Y-108.1
M16
G05
G00X50.7Y-123.2
M15
G01X51.3Y-123.2
M16
G05
G00X55.7Y-91.0
M15
G01X56.3Y-91.0
M16
G05
G00X55.7Y-106.1
M15
G01X56.3Y-106.1
M16
G05
G00X55.7Y-121.2
M15
G01X56.3Y-121.2
M16
G05
G00X60.7Y-88.9
M15
G01X61.3Y-88.9
M16
G05
G00X60.7Y-104.0
M15
G01X61.3Y-104.0
M16
G05
G00X60.7Y-119.1
M15
G01X61.3Y-119.1
M16
G05
G00X65.7Y-91.0
M15
G01X66.3Y-91.0
M16
G05
G00X65.7Y-106.1
M15
G01X66.3Y-106.1
M16
G05
G00X65.7Y-121.2
M15
G01X66.3Y-121.2
M16
G05
G00X72.7Y-86.0
M15
G01X73.3Y-86.0
M16
G05
G00X72.7Y-101.1
M15
G01X73.3Y-101.1
M16
G05
G00X72.7Y-116.2
M15
G01X73.3Y-116.2
M16
G05
G00X77.7Y-83.9
M15
G01X78.3Y-83.9
M16
G05
G00X77.7Y-99.0
M15
G01X78.3Y-99.0
M16
G05
G00X77.7Y-114.1
M15
G01X78.3Y-114.1
M16
G05
G00X82.7Y-86.0
M15
G01X83.3Y-86.0
M16
G05
G00X82.7Y-101.1
M15
G01X83.3Y-101.1
M16
G05
G00X82.7Y-116.2
M15
G01X83.3Y-116.2
M16
G05
G00X89.7Y-84.0
M15
G01X90.3Y-84.0
M16
G05
G00X89.7Y-99.1
M15
G01X90.3Y-99.1
M16
G05
G00X89.7Y-114.2
M15
G01X90.3Y-114.2
M16
G05
G00X92.578Y-148.362
M15
G01X93.169Y-148.467
M16
G05
G00X94.7Y-81.9
M15
G01X95.3Y-81.9
M16
G05
G00X94.7Y-97.0
M15
G01X95.3Y-97.0
M16
G05
G00X94.7Y-112.1
M15
G01X95.3Y-112.1
M16
G05
G00X95.182Y-133.59
M15
G01X95.773Y-133.695
M16
G05
G00X97.866Y-147.163
M15
G01X98.457Y-147.267
M16
G05
G00X99.7Y-84.0
M15
G01X100.3Y-84.0
M16
G05
G00X99.7Y-99.1
M15
G01X100.3Y-99.1
M16
G05
G00X99.7Y-114.2
M15
G01X100.3Y-114.2
M16
G05
G00X100.471Y-132.39
M15
G01X101.062Y-132.495
M16
G05
G00X102.426Y-150.099
M15
G01X103.017Y-150.203
M16
G05
G00X105.031Y-135.327
M15
G01X105.621Y-135.431
M16
G05
G00X106.7Y-86.0
M15
G01X107.3Y-86.0
M16
G05
G00X106.7Y-101.1
M15
G01X107.3Y-101.1
M16
G05
G00X106.7Y-116.2
M15
G01X107.3Y-116.2
M16
G05
G00X108.335Y-151.141
M15
G01X108.926Y-151.245
M16
G05
G00X110.939Y-136.369
M15
G01X111.53Y-136.473
M16
G05
G00X111.7Y-83.9
M15
G01X112.3Y-83.9
M16
G05
G00X111.7Y-99.0
M15
G01X112.3Y-99.0
M16
G05
G00X111.7Y-114.1
M15
G01X112.3Y-114.1
M16
G05
G00X113.623Y-149.941
M15
G01X114.214Y-150.045
M16
G05
G00X116.228Y-135.169
M15
G01X116.819Y-135.273
M16
G05
G00X116.7Y-86.0
M15
G01X117.3Y-86.0
M16
G05
G00X116.7Y-101.1
M15
G01X117.3Y-101.1
M16
G05
G00X116.7Y-116.2
M15
G01X117.3Y-116.2
M16
G05
G00X118.183Y-152.877
M15
G01X118.774Y-152.982
M16
G05
G00X120.787Y-138.105
M15
G01X121.378Y-138.209
M16
G05
G00X121.7Y-88.0
M15
G01X122.3Y-88.0
M16
G05
G00X121.7Y-103.1
M15
G01X122.3Y-103.1
M16
G05
G00X121.7Y-118.2
M15
G01X122.3Y-118.2
M16
G05
G00X124.092Y-153.919
M15
G01X124.682Y-154.023
M16
G05
G00X126.696Y-139.147
M15
G01X127.287Y-139.251
M16
G05
G00X126.7Y-85.9
M15
G01X127.3Y-85.9
M16
G05
G00X126.7Y-101.0
M15
G01X127.3Y-101.0
M16
G05
G00X126.7Y-116.1
M15
G01X127.3Y-116.1
M16
G05
G00X129.38Y-152.719
M15
G01X129.971Y-152.824
M16
G05
G00X131.7Y-88.0
M15
G01X132.3Y-88.0
M16
G05
G00X131.7Y-103.1
M15
G01X132.3Y-103.1
M16
G05
G00X131.7Y-118.2
M15
G01X132.3Y-118.2
M16
G05
G00X131.985Y-137.947
M15
G01X132.576Y-138.051
M16
G05
G00X133.94Y-155.656
M15
G01X134.531Y-155.76
M16
G05
G00X136.544Y-140.884
M15
G01X137.135Y-140.988
M16
G05
G00X139.849Y-156.698
M15
G01X140.439Y-156.802
M16
G05
G00X142.453Y-141.925
M15
G01X143.044Y-142.03
M16
G05
G00X145.137Y-155.498
M15
G01X145.728Y-155.602
M16
G05
G00X147.742Y-140.726
M15
G01X148.333Y-140.83
M16
G05
G00X149.697Y-158.434
M15
G01X150.287Y-158.538
M16
G05
G00X152.301Y-143.662
M15
G01X152.892Y-143.766
M16
G05
T0
M30
